<?xml version="1.0" standalone="no"?>
<!DOCTYPE svg PUBLIC "-//W3C//DTD SVG 20010904//EN"
 "http://www.w3.org/TR/2001/REC-SVG-20010904/DTD/svg10.dtd">
<svg version="1.0" xmlns="http://www.w3.org/2000/svg"
 width="1600.000000pt" height="1600.000000pt" viewBox="0 0 1600.000000 1600.000000"
 preserveAspectRatio="xMidYMid meet">
<metadata>
Created by potrace 1.14, written by Peter Selinger 2001-2017
</metadata>
<g transform="translate(0.000000,1600.000000) scale(0.100000,-0.100000)"
fill="#000000" stroke="none">
<path d="M1577 13658 c-49 -13 -103 -67 -116 -115 -15 -54 -15 -2738 0 -2798
16 -61 64 -103 138 -118 43 -9 1186 -12 4734 -11 l4676 0 1 -548 c0 -435 -2
-548 -12 -549 -7 0 -2126 -1 -4708 -2 l-4695 -2 -40 -21 c-52 -28 -71 -50 -90
-103 -13 -38 -15 -428 -15 -3465 0 -2468 3 -3432 11 -3461 14 -51 73 -110 124
-124 28 -8 511 -11 1646 -11 1449 0 1610 1 1652 16 55 19 90 58 107 123 8 32
11 544 11 1995 l-1 1951 3873 1 c3610 1 3878 2 3967 18 606 109 1180 559 1528
1196 71 131 152 359 168 474 2 17 7 54 11 81 5 28 8 871 8 1875 l0 1825 -22
101 c-102 460 -399 917 -807 1245 -262 209 -547 349 -851 416 -76 17 -363 18
-5670 19 -3776 2 -5602 -1 -5628 -8z"/>
</g>
</svg>
